<svg xmlns="http://www.w3.org/2000/svg" width="3000" height="2000"><path d="M1415,1126L1391,849L1314,1045Z" fill="#eff4fc" stroke="#eff4fc" stroke-width="1.51"/><path d="M1771,764L1546,663L1391,849Z" fill="#d9e7f8" stroke="#d9e7f8" stroke-width="1.51"/><path d="M1415,1126L1771,764L1391,849Z" fill="#ecf3fc" stroke="#ecf3fc" stroke-width="1.51"/><path d="M1391,849L1067,889L1314,1045Z" fill="#d3e4f7" stroke="#d3e4f7" stroke-width="1.51"/><path d="M1160,1423L1573,1387L1415,1126Z" fill="#e0ecf9" stroke="#e0ecf9" stroke-width="1.51"/><path d="M1050,577L1067,889L1391,849Z" fill="#bdd6f2" stroke="#bdd6f2" stroke-width="1.51"/><path d="M1718,1220L1771,764L1415,1126Z" fill="#e8f0fa" stroke="#e8f0fa" stroke-width="1.51"/><path d="M1415,1126L1573,1387L1718,1220Z" fill="#d9e7f8" stroke="#d9e7f8" stroke-width="1.51"/><path d="M1160,1423L1415,1126L1314,1045Z" fill="#c0d8f3" stroke="#c0d8f3" stroke-width="1.51"/><path d="M1067,889L1160,1423L1314,1045Z" fill="#c5dbf4" stroke="#c5dbf4" stroke-width="1.51"/><path d="M1050,577L963,847L1067,889Z" fill="#cfe1f6" stroke="#cfe1f6" stroke-width="1.51"/><path d="M721,1321L1160,1423L1067,889Z" fill="#d1e2f6" stroke="#d1e2f6" stroke-width="1.51"/><path d="M1546,663L1050,577L1391,849Z" fill="#d8e7f8" stroke="#d8e7f8" stroke-width="1.51"/><path d="M1050,577L952,535L963,847Z" fill="#eaf2fb" stroke="#eaf2fb" stroke-width="1.51"/><path d="M1305,178L952,535L1050,577Z" fill="#c6dcf4" stroke="#c6dcf4" stroke-width="1.51"/><path d="M1771,764L1804,420L1546,663Z" fill="#e2edfa" stroke="#e2edfa" stroke-width="1.51"/><path d="M1546,663L1439,246L1050,577Z" fill="#d8e7f7" stroke="#d8e7f7" stroke-width="1.51"/><path d="M1718,1220L2158,828L1771,764Z" fill="#d8e6f7" stroke="#d8e6f7" stroke-width="1.51"/><path d="M1771,764L2162,415L1804,420Z" fill="#dbe8f8" stroke="#dbe8f8" stroke-width="1.51"/><path d="M2187,1243L2158,828L1718,1220Z" fill="#e3edfa" stroke="#e3edfa" stroke-width="1.51"/><path d="M1804,420L1439,246L1546,663Z" fill="#d6e5f7" stroke="#d6e5f7" stroke-width="1.51"/><path d="M1573,1387L1872,1626L1718,1220Z" fill="#e2ecf9" stroke="#e2ecf9" stroke-width="1.51"/><path d="M1390,1827L1872,1626L1573,1387Z" fill="#cee1f6" stroke="#cee1f6" stroke-width="1.51"/><path d="M1872,1626L2050,1484L1718,1220Z" fill="#dce9f8" stroke="#dce9f8" stroke-width="1.51"/><path d="M2050,1484L2187,1243L1718,1220Z" fill="#e1ecf9" stroke="#e1ecf9" stroke-width="1.51"/><path d="M963,847L721,1321L1067,889Z" fill="#fafcfe" stroke="#fafcfe" stroke-width="1.51"/><path d="M1160,1423L1390,1827L1573,1387Z" fill="#d4e4f7" stroke="#d4e4f7" stroke-width="1.51"/><path d="M587,989L721,1321L963,847Z" fill="#e4eefa" stroke="#e4eefa" stroke-width="1.51"/><path d="M1439,246L1305,178L1050,577Z" fill="#c9ddf4" stroke="#c9ddf4" stroke-width="1.51"/><path d="M1352,-125L1305,178L1439,246Z" fill="#dce9f8" stroke="#dce9f8" stroke-width="1.51"/><path d="M1197,1808L1390,1827L1160,1423Z" fill="#cadef5" stroke="#cadef5" stroke-width="1.51"/><path d="M621,494L587,989L963,847Z" fill="#c8ddf4" stroke="#c8ddf4" stroke-width="1.51"/><path d="M896,1854L1197,1808L1160,1423Z" fill="#d5e5f7" stroke="#d5e5f7" stroke-width="1.51"/><path d="M2158,828L2162,415L1771,764Z" fill="#eaf1fb" stroke="#eaf1fb" stroke-width="1.51"/><path d="M2187,1243L2336,863L2158,828Z" fill="#ebf2fb" stroke="#ebf2fb" stroke-width="1.51"/><path d="M721,1321L738,1628L1160,1423Z" fill="#f1f6fd" stroke="#f1f6fd" stroke-width="1.51"/><path d="M587,989L565,1213L721,1321Z" fill="#bbd6f2" stroke="#bbd6f2" stroke-width="1.51"/><path d="M1804,420L1965,154L1439,246Z" fill="#d4e4f7" stroke="#d4e4f7" stroke-width="1.51"/><path d="M2336,863L2162,415L2158,828Z" fill="#deeaf8" stroke="#deeaf8" stroke-width="1.51"/><path d="M2050,1484L2626,1569L2187,1243Z" fill="#e2edfa" stroke="#e2edfa" stroke-width="1.51"/><path d="M2187,1243L2627,1073L2336,863Z" fill="#d0e2f6" stroke="#d0e2f6" stroke-width="1.51"/><path d="M1872,1626L2120,1735L2050,1484Z" fill="#d2e3f6" stroke="#d2e3f6" stroke-width="1.51"/><path d="M1711,2162L1982,1773L1872,1626Z" fill="#d6e5f7" stroke="#d6e5f7" stroke-width="1.51"/><path d="M548,1435L738,1628L721,1321Z" fill="#d7e6f7" stroke="#d7e6f7" stroke-width="1.51"/><path d="M952,535L621,494L963,847Z" fill="#f4f7fd" stroke="#f4f7fd" stroke-width="1.51"/><path d="M587,989L152,884L565,1213Z" fill="#e9f1fb" stroke="#e9f1fb" stroke-width="1.51"/><path d="M782,122L621,494L952,535Z" fill="#cee1f5" stroke="#cee1f5" stroke-width="1.51"/><path d="M2162,415L1965,154L1804,420Z" fill="#d7e6f7" stroke="#d7e6f7" stroke-width="1.51"/><path d="M565,1213L548,1435L721,1321Z" fill="#cce0f5" stroke="#cce0f5" stroke-width="1.51"/><path d="M1982,1773L2120,1735L1872,1626Z" fill="#e1ecf9" stroke="#e1ecf9" stroke-width="1.51"/><path d="M877,2044L896,1854L384,1771Z" fill="#d8e6f7" stroke="#d8e6f7" stroke-width="1.51"/><path d="M738,1628L896,1854L1160,1423Z" fill="#dce9f8" stroke="#dce9f8" stroke-width="1.51"/><path d="M1197,1808L1305,2014L1390,1827Z" fill="#d6e6f7" stroke="#d6e6f7" stroke-width="1.51"/><path d="M1390,1827L1711,2162L1872,1626Z" fill="#deeaf9" stroke="#deeaf9" stroke-width="1.51"/><path d="M1982,1773L2102,2170L2120,1735Z" fill="#eaf1fb" stroke="#eaf1fb" stroke-width="1.51"/><path d="M877,2044L1305,2014L1197,1808Z" fill="#c5dbf3" stroke="#c5dbf3" stroke-width="1.51"/><path d="M1008,-155L782,122L1305,178Z" fill="#d2e3f7" stroke="#d2e3f7" stroke-width="1.51"/><path d="M1305,178L782,122L952,535Z" fill="#e3edf9" stroke="#e3edf9" stroke-width="1.51"/><path d="M2565,504L2251,237L2162,415Z" fill="#c0d8f3" stroke="#c0d8f3" stroke-width="1.51"/><path d="M2162,415L2251,237L1965,154Z" fill="#eff5fc" stroke="#eff5fc" stroke-width="1.51"/><path d="M1973,-297L1352,-125L1965,154Z" fill="#b8d4f1" stroke="#b8d4f1" stroke-width="1.51"/><path d="M1965,154L1352,-125L1439,246Z" fill="#e1ecf9" stroke="#e1ecf9" stroke-width="1.51"/><path d="M782,122L568,212L621,494Z" fill="#d3e3f6" stroke="#d3e3f6" stroke-width="1.51"/><path d="M621,494L152,884L587,989Z" fill="#c8ddf4" stroke="#c8ddf4" stroke-width="1.51"/><path d="M565,1213L101,1241L548,1435Z" fill="#dfebf9" stroke="#dfebf9" stroke-width="1.51"/><path d="M589,-288L568,212L782,122Z" fill="#bcd6f2" stroke="#bcd6f2" stroke-width="1.51"/><path d="M2708,1104L2627,1073L2626,1569Z" fill="#ddeaf9" stroke="#ddeaf9" stroke-width="1.51"/><path d="M2336,863L2565,504L2162,415Z" fill="#deebf9" stroke="#deebf9" stroke-width="1.51"/><path d="M896,1854L877,2044L1197,1808Z" fill="#e1ecf9" stroke="#e1ecf9" stroke-width="1.51"/><path d="M384,1771L896,1854L738,1628Z" fill="#dae8f8" stroke="#dae8f8" stroke-width="1.51"/><path d="M1470,2204L1711,2162L1390,1827Z" fill="#d7e6f7" stroke="#d7e6f7" stroke-width="1.51"/><path d="M1470,2204L1390,1827L1305,2014Z" fill="#cbdff5" stroke="#cbdff5" stroke-width="1.51"/><path d="M2728,936L2565,504L2336,863Z" fill="#ccdff5" stroke="#ccdff5" stroke-width="1.51"/><path d="M1352,-125L1008,-155L1305,178Z" fill="#b6d2f1" stroke="#b6d2f1" stroke-width="1.51"/><path d="M1248,2395L1470,2204L1305,2014Z" fill="#c5dbf4" stroke="#c5dbf4" stroke-width="1.51"/><path d="M2251,237L2334,145L1965,154Z" fill="#f1f6fc" stroke="#f1f6fc" stroke-width="1.51"/><path d="M2565,504L2334,145L2251,237Z" fill="#c9def5" stroke="#c9def5" stroke-width="1.51"/><path d="M1008,-155L860,-106L782,122Z" fill="#d8e6f7" stroke="#d8e6f7" stroke-width="1.51"/><path d="M2627,1073L2728,936L2336,863Z" fill="#e6effa" stroke="#e6effa" stroke-width="1.51"/><path d="M2626,1569L2627,1073L2187,1243Z" fill="#d0e2f6" stroke="#d0e2f6" stroke-width="1.51"/><path d="M2120,1735L2432,1800L2050,1484Z" fill="#dbe8f8" stroke="#dbe8f8" stroke-width="1.51"/><path d="M2398,2141L2432,1800L2120,1735Z" fill="#d3e4f6" stroke="#d3e4f6" stroke-width="1.51"/><path d="M2708,1104L2728,936L2627,1073Z" fill="#f7f9fd" stroke="#f7f9fd" stroke-width="1.51"/><path d="M38,622L152,884L621,494Z" fill="#eff4fc" stroke="#eff4fc" stroke-width="1.51"/><path d="M548,1435L384,1771L738,1628Z" fill="#bbd6f2" stroke="#bbd6f2" stroke-width="1.51"/><path d="M2432,1800L2626,1569L2050,1484Z" fill="#bad5f1" stroke="#bad5f1" stroke-width="1.51"/><path d="M57,1561L384,1771L548,1435Z" fill="#d8e6f8" stroke="#d8e6f8" stroke-width="1.51"/><path d="M568,212L297,310L621,494Z" fill="#cde0f5" stroke="#cde0f5" stroke-width="1.51"/><path d="M85,-63L297,310L568,212Z" fill="#f5f8fd" stroke="#f5f8fd" stroke-width="1.51"/><path d="M1929,2415L2102,2170L1711,2162Z" fill="#c2d9f3" stroke="#c2d9f3" stroke-width="1.51"/><path d="M1711,2162L2102,2170L1982,1773Z" fill="#c4dbf4" stroke="#c4dbf4" stroke-width="1.51"/><path d="M152,884L101,1241L565,1213Z" fill="#e7f0fb" stroke="#e7f0fb" stroke-width="1.51"/><path d="M2728,936L2703,435L2565,504Z" fill="#f6fafd" stroke="#f6fafd" stroke-width="1.51"/><path d="M2565,504L2703,435L2334,145Z" fill="#ccdff5" stroke="#ccdff5" stroke-width="1.51"/><path d="M1008,-155L868,-338L860,-106Z" fill="#d8e7f7" stroke="#d8e7f7" stroke-width="1.51"/><path d="M860,-106L589,-288L782,122Z" fill="#c6dcf4" stroke="#c6dcf4" stroke-width="1.51"/><path d="M1352,-125L1021,-324L1008,-155Z" fill="#bdd6f2" stroke="#bdd6f2" stroke-width="1.51"/><path d="M1580,-637L1021,-324L1352,-125Z" fill="#c2daf3" stroke="#c2daf3" stroke-width="1.51"/><path d="M2218,-228L1973,-297L1965,154Z" fill="#d4e4f7" stroke="#d4e4f7" stroke-width="1.51"/><path d="M2218,-228L1965,154L2334,145Z" fill="#d5e5f7" stroke="#d5e5f7" stroke-width="1.51"/><path d="M1973,-297L1946,-336L1352,-125Z" fill="#b9d4f1" stroke="#b9d4f1" stroke-width="1.51"/><path d="M2058,-518L1946,-336L1973,-297Z" fill="#ccdff5" stroke="#ccdff5" stroke-width="1.51"/><path d="M779,2642L1248,2395L877,2044Z" fill="#d1e2f6" stroke="#d1e2f6" stroke-width="1.51"/><path d="M877,2044L1248,2395L1305,2014Z" fill="#bbd5f2" stroke="#bbd5f2" stroke-width="1.51"/><path d="M1406,2569L1929,2415L1711,2162Z" fill="#c3daf3" stroke="#c3daf3" stroke-width="1.51"/><path d="M2359,-174L2218,-228L2334,145Z" fill="#c0d8f3" stroke="#c0d8f3" stroke-width="1.51"/><path d="M1021,-324L868,-338L1008,-155Z" fill="#d1e3f6" stroke="#d1e3f6" stroke-width="1.51"/><path d="M543,-541L868,-338L1021,-324Z" fill="#cee1f6" stroke="#cee1f6" stroke-width="1.51"/><path d="M152,884L4,1174L101,1241Z" fill="#d2e3f6" stroke="#d2e3f6" stroke-width="1.51"/><path d="M297,310L38,622L621,494Z" fill="#e5effa" stroke="#e5effa" stroke-width="1.51"/><path d="M101,1241L57,1561L548,1435Z" fill="#f5f8fd" stroke="#f5f8fd" stroke-width="1.51"/><path d="M-189,840L4,1174L152,884Z" fill="#d3e4f7" stroke="#d3e4f7" stroke-width="1.51"/><path d="M2218,-228L2058,-518L1973,-297Z" fill="#d8e6f7" stroke="#d8e6f7" stroke-width="1.51"/><path d="M2726,131L2359,-174L2334,145Z" fill="#c3daf4" stroke="#c3daf4" stroke-width="1.51"/><path d="M2626,1569L3006,1272L2708,1104Z" fill="#e5effa" stroke="#e5effa" stroke-width="1.51"/><path d="M2708,1104L3050,853L2728,936Z" fill="#e9f1fb" stroke="#e9f1fb" stroke-width="1.51"/><path d="M3210,438L2726,131L2703,435Z" fill="#cfe1f6" stroke="#cfe1f6" stroke-width="1.51"/><path d="M2432,1800L2781,1610L2626,1569Z" fill="#dae8f8" stroke="#dae8f8" stroke-width="1.51"/><path d="M2945,1730L2781,1610L2432,1800Z" fill="#edf3fc" stroke="#edf3fc" stroke-width="1.51"/><path d="M2102,2170L2398,2141L2120,1735Z" fill="#ccdff5" stroke="#ccdff5" stroke-width="1.51"/><path d="M2108,2349L2398,2141L2102,2170Z" fill="#cde0f5" stroke="#cde0f5" stroke-width="1.51"/><path d="M-59,1518L57,1561L101,1241Z" fill="#d6e6f7" stroke="#d6e6f7" stroke-width="1.51"/><path d="M779,2642L1406,2569L1248,2395Z" fill="#bbd5f2" stroke="#bbd5f2" stroke-width="1.51"/><path d="M1406,2569L1711,2162L1470,2204Z" fill="#d6e5f7" stroke="#d6e5f7" stroke-width="1.51"/><path d="M1929,2415L2108,2349L2102,2170Z" fill="#d3e4f6" stroke="#d3e4f6" stroke-width="1.51"/><path d="M297,310L1,341L38,622Z" fill="#c7dcf4" stroke="#c7dcf4" stroke-width="1.51"/><path d="M868,-338L589,-288L860,-106Z" fill="#c9def5" stroke="#c9def5" stroke-width="1.51"/><path d="M3050,853L2703,435L2728,936Z" fill="#d5e4f7" stroke="#d5e4f7" stroke-width="1.51"/><path d="M2703,435L2726,131L2334,145Z" fill="#eaf2fb" stroke="#eaf2fb" stroke-width="1.51"/><path d="M38,622L-189,840L152,884Z" fill="#b7d3f1" stroke="#b7d3f1" stroke-width="1.51"/><path d="M-3,294L1,341L297,310Z" fill="#d1e2f6" stroke="#d1e2f6" stroke-width="1.51"/><path d="M1248,2395L1406,2569L1470,2204Z" fill="#cadef5" stroke="#cadef5" stroke-width="1.51"/><path d="M349,2204L877,2044L384,1771Z" fill="#bcd6f2" stroke="#bcd6f2" stroke-width="1.51"/><path d="M2781,1610L3006,1272L2626,1569Z" fill="#e3edfa" stroke="#e3edfa" stroke-width="1.51"/><path d="M57,1561L127,1912L384,1771Z" fill="#e8f0fb" stroke="#e8f0fb" stroke-width="1.51"/><path d="M4,1174L-59,1518L101,1241Z" fill="#cbdef5" stroke="#cbdef5" stroke-width="1.51"/><path d="M-368,1190L-59,1518L4,1174Z" fill="#c5dbf4" stroke="#c5dbf4" stroke-width="1.51"/><path d="M-336,487L-189,840L38,622Z" fill="#d0e2f6" stroke="#d0e2f6" stroke-width="1.51"/><path d="M85,-63L-3,294L297,310Z" fill="#e6effa" stroke="#e6effa" stroke-width="1.51"/><path d="M3006,1272L3050,853L2708,1104Z" fill="#d6e5f7" stroke="#d6e5f7" stroke-width="1.51"/><path d="M-219,1932L127,1912L57,1561Z" fill="#d9e8f8" stroke="#d9e8f8" stroke-width="1.51"/><path d="M1946,-336L1580,-637L1352,-125Z" fill="#cadef5" stroke="#cadef5" stroke-width="1.51"/><path d="M2577,-553L2058,-518L2218,-228Z" fill="#c2daf3" stroke="#c2daf3" stroke-width="1.51"/><path d="M2577,-553L2218,-228L2359,-174Z" fill="#b5d2f1" stroke="#b5d2f1" stroke-width="1.51"/><path d="M2058,-518L1580,-637L1946,-336Z" fill="#bbd5f2" stroke="#bbd5f2" stroke-width="1.51"/><path d="M868,-338L543,-541L589,-288Z" fill="#bcd6f2" stroke="#bcd6f2" stroke-width="1.51"/><path d="M201,2066L349,2204L384,1771Z" fill="#d8e7f7" stroke="#d8e7f7" stroke-width="1.51"/><path d="M-336,487L38,622L1,341Z" fill="#c3daf3" stroke="#c3daf3" stroke-width="1.51"/><path d="M127,1912L201,2066L384,1771Z" fill="#e2ecf9" stroke="#e2ecf9" stroke-width="1.51"/><path d="M2933,2076L2945,1730L2432,1800Z" fill="#eaf1fb" stroke="#eaf1fb" stroke-width="1.51"/><path d="M2781,1610L3067,1548L3006,1272Z" fill="#d1e2f6" stroke="#d1e2f6" stroke-width="1.51"/><path d="M2945,1730L3067,1548L2781,1610Z" fill="#c2d9f3" stroke="#c2d9f3" stroke-width="1.51"/><path d="M3502,1351L3439,767L3050,853Z" fill="#d8e7f7" stroke="#d8e7f7" stroke-width="1.51"/><path d="M589,-288L85,-63L568,212Z" fill="#cbdff5" stroke="#cbdff5" stroke-width="1.51"/><path d="M-614,823L-368,1190L-189,840Z" fill="#d0e2f6" stroke="#d0e2f6" stroke-width="1.51"/><path d="M589,-288L168,-426L85,-63Z" fill="#d7e6f7" stroke="#d7e6f7" stroke-width="1.51"/><path d="M1580,-637L543,-541L1021,-324Z" fill="#c7dcf4" stroke="#c7dcf4" stroke-width="1.51"/><path d="M504,2594L877,2044L349,2204Z" fill="#b6d3f1" stroke="#b6d3f1" stroke-width="1.51"/><path d="M504,2594L779,2642L877,2044Z" fill="#c3daf3" stroke="#c3daf3" stroke-width="1.51"/><path d="M-59,1518L-219,1932L57,1561Z" fill="#c1d9f3" stroke="#c1d9f3" stroke-width="1.51"/><path d="M-245,2101L129,2360L201,2066Z" fill="#b7d3f1" stroke="#b7d3f1" stroke-width="1.51"/><path d="M-189,840L-368,1190L4,1174Z" fill="#cde0f5" stroke="#cde0f5" stroke-width="1.51"/><path d="M-336,487L1,341L-3,294Z" fill="#b8d4f1" stroke="#b8d4f1" stroke-width="1.51"/><path d="M2398,2141L2933,2076L2432,1800Z" fill="#cbdff5" stroke="#cbdff5" stroke-width="1.51"/><path d="M2945,1730L3274,1937L3067,1548Z" fill="#cee1f5" stroke="#cee1f5" stroke-width="1.51"/><path d="M2108,2349L2555,2438L2398,2141Z" fill="#b9d4f1" stroke="#b9d4f1" stroke-width="1.51"/><path d="M1929,2415L2555,2438L2108,2349Z" fill="#cde0f5" stroke="#cde0f5" stroke-width="1.51"/><path d="M1406,2569L2555,2438L1929,2415Z" fill="#c8ddf4" stroke="#c8ddf4" stroke-width="1.51"/><path d="M2885,2410L2555,2438L3173,2510Z" fill="#c4dbf4" stroke="#c4dbf4" stroke-width="1.51"/><path d="M2555,2438L2933,2076L2398,2141Z" fill="#d0e2f6" stroke="#d0e2f6" stroke-width="1.51"/><path d="M3050,853L3210,438L2703,435Z" fill="#d7e6f7" stroke="#d7e6f7" stroke-width="1.51"/><path d="M2726,131L2763,-342L2359,-174Z" fill="#cfe1f6" stroke="#cfe1f6" stroke-width="1.51"/><path d="M3439,767L3210,438L3050,853Z" fill="#c9def5" stroke="#c9def5" stroke-width="1.51"/><path d="M-548,283L-336,487L-3,294Z" fill="#bcd6f2" stroke="#bcd6f2" stroke-width="1.51"/><path d="M129,2360L504,2594L349,2204Z" fill="#d6e6f7" stroke="#d6e6f7" stroke-width="1.51"/><path d="M129,2360L349,2204L201,2066Z" fill="#d0e2f6" stroke="#d0e2f6" stroke-width="1.51"/><path d="M2972,-171L2763,-342L2726,131Z" fill="#cadef5" stroke="#cadef5" stroke-width="1.51"/><path d="M-368,1190L-413,1380L-59,1518Z" fill="#d3e3f6" stroke="#d3e3f6" stroke-width="1.51"/><path d="M-614,823L-413,1380L-368,1190Z" fill="#c1d9f3" stroke="#c1d9f3" stroke-width="1.51"/><path d="M85,-63L-102,-177L-3,294Z" fill="#b7d3f1" stroke="#b7d3f1" stroke-width="1.51"/><path d="M543,-541L168,-426L589,-288Z" fill="#c9ddf4" stroke="#c9ddf4" stroke-width="1.51"/><path d="M-245,2101L201,2066L127,1912Z" fill="#b7d3f1" stroke="#b7d3f1" stroke-width="1.51"/><path d="M2763,-342L2577,-553L2359,-174Z" fill="#c9ddf4" stroke="#c9ddf4" stroke-width="1.51"/><path d="M2058,-518L2577,-553L1580,-637Z" fill="#d6e6f7" stroke="#d6e6f7" stroke-width="1.51"/><path d="M2763,-342L3261,-537L2577,-553Z" fill="#c4dbf4" stroke="#c4dbf4" stroke-width="1.51"/><path d="M3267,276L2972,-171L2726,131Z" fill="#c4dbf4" stroke="#c4dbf4" stroke-width="1.51"/><path d="M-412,1699L-219,1932L-59,1518Z" fill="#cadef5" stroke="#cadef5" stroke-width="1.51"/><path d="M168,-426L-102,-177L85,-63Z" fill="#bad5f2" stroke="#bad5f2" stroke-width="1.51"/><path d="M3210,438L3267,276L2726,131Z" fill="#cadef5" stroke="#cadef5" stroke-width="1.51"/><path d="M3356,271L3267,276L3210,438Z" fill="#c1d9f3" stroke="#c1d9f3" stroke-width="1.51"/><path d="M-413,1380L-412,1699L-59,1518Z" fill="#c0d8f3" stroke="#c0d8f3" stroke-width="1.51"/><path d="M-219,1932L-245,2101L127,1912Z" fill="#b7d3f1" stroke="#b7d3f1" stroke-width="1.51"/><path d="M3502,1351L3006,1272L3067,1548Z" fill="#d8e7f7" stroke="#d8e7f7" stroke-width="1.51"/><path d="M3502,1351L3050,853L3006,1272Z" fill="#bbd5f2" stroke="#bbd5f2" stroke-width="1.51"/><path d="M2933,2076L3274,1937L2945,1730Z" fill="#c4daf4" stroke="#c4daf4" stroke-width="1.51"/><path d="M2555,2438L2885,2410L2933,2076Z" fill="#cee1f6" stroke="#cee1f6" stroke-width="1.51"/><path d="M3173,2510L2555,2438L1406,2569Z" fill="#b6d2f1" stroke="#b6d2f1" stroke-width="1.51"/><path d="M-428,2143L-245,2101L-219,1932Z" fill="#b3d1f0" stroke="#b3d1f0" stroke-width="1.51"/><path d="M3572,588L3356,271L3210,438Z" fill="#bad4f1" stroke="#bad4f1" stroke-width="1.51"/><path d="M3267,276L3157,-221L2972,-171Z" fill="#b3d1f0" stroke="#b3d1f0" stroke-width="1.51"/><path d="M2885,2410L3027,2284L2933,2076Z" fill="#bad5f2" stroke="#bad5f2" stroke-width="1.51"/><path d="M3027,2284L3274,1937L2933,2076Z" fill="#b3d1f0" stroke="#b3d1f0" stroke-width="1.51"/><path d="M-336,487L-614,823L-189,840Z" fill="#c3daf3" stroke="#c3daf3" stroke-width="1.51"/><path d="M-413,1380L-614,823L-412,1699Z" fill="#c7dcf4" stroke="#c7dcf4" stroke-width="1.51"/><path d="M-548,283L-614,823L-336,487Z" fill="#cce0f5" stroke="#cce0f5" stroke-width="1.51"/><path d="M3274,1937L3502,1351L3067,1548Z" fill="#b6d2f1" stroke="#b6d2f1" stroke-width="1.51"/><path d="M2972,-171L3157,-221L2763,-342Z" fill="#b8d3f1" stroke="#b8d3f1" stroke-width="1.51"/><path d="M3356,271L3157,-221L3267,276Z" fill="#c8ddf4" stroke="#c8ddf4" stroke-width="1.51"/><path d="M-102,-177L-548,283L-3,294Z" fill="#cde0f5" stroke="#cde0f5" stroke-width="1.51"/><path d="M3570,-85L3261,-537L3157,-221Z" fill="#b3d1f0" stroke="#b3d1f0" stroke-width="1.51"/><path d="M3439,767L3572,588L3210,438Z" fill="#d9e7f8" stroke="#d9e7f8" stroke-width="1.51"/><path d="M3590,1308L3572,588L3439,767Z" fill="#c4dbf4" stroke="#c4dbf4" stroke-width="1.51"/><path d="M3502,1351L3590,1308L3439,767Z" fill="#bfd7f2" stroke="#bfd7f2" stroke-width="1.51"/><path d="M3572,1931L3590,1308L3502,1351Z" fill="#c1d9f3" stroke="#c1d9f3" stroke-width="1.51"/><path d="M-245,2101L-319,2335L129,2360Z" fill="#b3d1f0" stroke="#b3d1f0" stroke-width="1.51"/><path d="M129,2360L-249,2564L504,2594Z" fill="#c4daf3" stroke="#c4daf3" stroke-width="1.51"/><path d="M-412,1699L-428,2143L-219,1932Z" fill="#c2d9f3" stroke="#c2d9f3" stroke-width="1.51"/><path d="M-614,823L-428,2143L-412,1699Z" fill="#bcd6f2" stroke="#bcd6f2" stroke-width="1.51"/><path d="M-428,2143L-319,2335L-245,2101Z" fill="#b3d1f0" stroke="#b3d1f0" stroke-width="1.51"/><path d="M3274,1937L3572,1931L3502,1351Z" fill="#cee1f6" stroke="#cee1f6" stroke-width="1.51"/><path d="M3027,2284L3385,2184L3274,1937Z" fill="#b3d1f0" stroke="#b3d1f0" stroke-width="1.51"/><path d="M3173,2510L3385,2184L3027,2284Z" fill="#b3d1f0" stroke="#b3d1f0" stroke-width="1.51"/><path d="M2885,2410L3173,2510L3027,2284Z" fill="#b3d1f0" stroke="#b3d1f0" stroke-width="1.51"/><path d="M779,2642L3173,2510L1406,2569Z" fill="#b5d2f1" stroke="#b5d2f1" stroke-width="1.51"/><path d="M-428,2143L-249,2564L-319,2335Z" fill="#b3d1f0" stroke="#b3d1f0" stroke-width="1.51"/><path d="M-319,2335L-249,2564L129,2360Z" fill="#b3d1f0" stroke="#b3d1f0" stroke-width="1.51"/><path d="M504,2594L-249,2564L779,2642Z" fill="#d4e4f7" stroke="#d4e4f7" stroke-width="1.51"/><path d="M-102,-177L-491,-312L-548,283Z" fill="#b3d1f0" stroke="#b3d1f0" stroke-width="1.51"/><path d="M168,-426L-255,-599L-102,-177Z" fill="#b3d1f0" stroke="#b3d1f0" stroke-width="1.51"/><path d="M543,-541L-255,-599L168,-426Z" fill="#c7dcf4" stroke="#c7dcf4" stroke-width="1.51"/><path d="M1580,-637L-255,-599L543,-541Z" fill="#b6d2f1" stroke="#b6d2f1" stroke-width="1.51"/><path d="M3561,2394L3572,1931L3385,2184Z" fill="#b3d1f0" stroke="#b3d1f0" stroke-width="1.51"/><path d="M3385,2184L3572,1931L3274,1937Z" fill="#b3d1f0" stroke="#b3d1f0" stroke-width="1.51"/><path d="M-255,-599L-491,-312L-102,-177Z" fill="#b3d1f0" stroke="#b3d1f0" stroke-width="1.51"/><path d="M-548,283L-514,-360L-614,823Z" fill="#d0e2f6" stroke="#d0e2f6" stroke-width="1.51"/><path d="M3157,-221L3261,-537L2763,-342Z" fill="#b3d1f0" stroke="#b3d1f0" stroke-width="1.51"/><path d="M2577,-553L3584,-574L1580,-637Z" fill="#cadef5" stroke="#cadef5" stroke-width="1.51"/><path d="M3570,-85L3157,-221L3356,271Z" fill="#b3d1f0" stroke="#b3d1f0" stroke-width="1.51"/><path d="M-255,-599L-514,-360L-491,-312Z" fill="#b3d1f0" stroke="#b3d1f0" stroke-width="1.51"/><path d="M-491,-312L-514,-360L-548,283Z" fill="#b3d1f0" stroke="#b3d1f0" stroke-width="1.51"/><path d="M3584,-574L3570,-85L3572,588Z" fill="#b3d1f0" stroke="#b3d1f0" stroke-width="1.51"/><path d="M3572,588L3570,-85L3356,271Z" fill="#cee1f6" stroke="#cee1f6" stroke-width="1.51"/><path d="M3173,2510L3561,2394L3385,2184Z" fill="#b3d1f0" stroke="#b3d1f0" stroke-width="1.51"/><path d="M3572,1931L3561,2394L3590,1308Z" fill="#cbdff5" stroke="#cbdff5" stroke-width="1.51"/><path d="M3570,-85L3584,-574L3261,-537Z" fill="#b3d1f0" stroke="#b3d1f0" stroke-width="1.51"/><path d="M3261,-537L3584,-574L2577,-553Z" fill="#b3d1f0" stroke="#b3d1f0" stroke-width="1.51"/><path d="M3590,1308L3584,-574L3572,588Z" fill="#bbd5f2" stroke="#bbd5f2" stroke-width="1.51"/></svg>